<svg id="svg" version="1.1" xmlns="http://www.w3.org/2000/svg" xmlns:xlink="http://www.w3.org/1999/xlink" width="400" height="400" viewBox="0, 0, 400,400"><g id="svgg"><path id="path0" d="M219.971 105.693 C 218.547 106.883,217.383 107.979,217.383 108.128 C 217.383 108.277,217.244 108.398,217.074 108.398 C 216.662 108.398,215.039 109.741,215.039 110.082 C 215.039 110.230,214.894 110.352,214.717 110.352 C 214.289 110.352,212.695 111.670,212.695 112.025 C 212.695 112.179,212.568 112.305,212.412 112.305 C 212.019 112.305,206.445 116.980,206.445 117.310 C 206.445 117.458,206.306 117.578,206.136 117.578 C 205.724 117.578,204.102 118.921,204.102 119.262 C 204.102 119.410,203.969 119.531,203.807 119.531 C 203.646 119.531,202.086 120.733,200.341 122.202 C 198.596 123.670,196.267 125.616,195.166 126.524 C 194.065 127.433,193.164 128.297,193.164 128.444 C 193.164 128.591,193.038 128.711,192.885 128.711 C 192.731 128.711,191.258 129.832,189.610 131.201 C 187.962 132.571,186.198 134.027,185.690 134.437 C 185.182 134.847,184.766 135.308,184.766 135.462 C 184.766 135.616,184.601 135.742,184.399 135.742 C 184.197 135.742,183.922 135.875,183.787 136.037 C 183.653 136.199,182.412 137.273,181.029 138.422 C 179.647 139.572,178.516 140.626,178.516 140.764 C 178.516 140.903,178.377 141.016,178.207 141.016 C 177.794 141.016,176.172 142.358,176.172 142.699 C 176.172 142.848,176.033 142.969,175.863 142.969 C 175.451 142.969,173.828 144.311,173.828 144.652 C 173.828 144.801,173.689 144.922,173.519 144.922 C 173.107 144.922,171.484 146.264,171.484 146.606 C 171.484 146.754,171.366 146.875,171.221 146.875 C 170.846 146.875,167.578 149.618,167.578 149.933 C 167.578 150.077,167.439 150.195,167.269 150.195 C 166.857 150.195,165.234 151.538,165.234 151.879 C 165.234 152.027,165.095 152.148,164.925 152.148 C 164.513 152.148,162.891 153.491,162.891 153.832 C 162.891 153.980,162.749 154.102,162.575 154.102 C 162.401 154.102,161.728 154.593,161.079 155.194 C 158.888 157.223,159.323 157.456,155.757 152.344 C 154.521 150.571,153.042 148.462,152.470 147.656 C 151.575 146.395,148.525 142.068,146.001 138.477 C 145.585 137.886,144.617 136.523,143.849 135.449 C 143.082 134.375,141.559 132.222,140.466 130.664 C 139.373 129.106,137.234 126.074,135.714 123.926 C 134.193 121.777,132.460 119.316,131.863 118.457 C 131.266 117.598,129.549 115.181,128.048 113.086 C 126.547 110.991,124.665 108.311,123.866 107.129 C 121.154 103.120,120.273 103.162,119.739 107.324 C 119.615 108.291,119.032 112.729,118.442 117.188 C 117.853 121.646,116.977 128.281,116.495 131.934 C 115.514 139.363,115.016 143.100,114.451 147.266 C 114.240 148.823,113.317 155.767,112.400 162.695 C 110.724 175.362,110.399 177.539,110.184 177.539 C 110.061 177.539,109.639 177.408,99.121 174.119 C 95.469 172.976,91.074 171.602,89.355 171.065 C 87.637 170.527,83.462 169.208,80.078 168.133 C 76.694 167.058,72.124 165.606,69.922 164.906 C 67.720 164.206,65.391 163.478,64.746 163.287 C 63.647 162.962,60.511 161.968,51.660 159.139 C 43.136 156.415,42.547 156.637,45.576 161.426 C 46.959 163.612,49.765 168.213,52.188 172.266 C 52.926 173.501,54.947 176.841,56.677 179.688 C 64.359 192.322,65.228 193.756,72.353 205.566 C 74.038 208.359,75.619 210.952,75.866 211.328 C 76.359 212.077,81.416 220.510,82.143 221.795 L 82.595 222.595 78.065 222.719 C 75.574 222.787,72.129 222.932,70.410 223.040 C 67.560 223.220,57.366 223.743,41.797 224.506 C 38.521 224.666,33.203 224.931,29.980 225.093 C 26.758 225.255,22.562 225.458,20.657 225.543 C 18.587 225.636,17.106 225.785,16.976 225.915 C 16.765 226.126,16.633 227.447,16.807 227.608 C 16.881 227.676,42.023 236.014,70.020 245.254 C 81.785 249.137,85.687 250.466,85.870 250.649 C 85.911 250.689,85.237 251.725,84.373 252.949 C 83.509 254.174,81.772 256.653,80.513 258.458 C 79.253 260.263,76.948 263.533,75.391 265.724 C 71.094 271.769,68.082 276.057,64.746 280.879 C 63.779 282.276,62.482 284.096,61.863 284.923 C 61.245 285.749,60.634 286.711,60.506 287.061 C 60.378 287.410,60.178 287.695,60.061 287.695 C 59.945 287.695,59.706 287.937,59.530 288.232 C 59.252 288.698,54.589 295.333,52.975 297.559 C 52.664 297.988,51.367 299.834,50.093 301.660 C 48.820 303.486,46.508 306.772,44.956 308.963 C 43.403 311.153,42.038 313.196,41.922 313.504 C 41.806 313.811,41.621 314.066,41.510 314.070 C 41.399 314.074,40.737 314.929,40.039 315.969 C 39.341 317.010,38.660 317.996,38.527 318.160 C 38.207 318.552,36.187 321.400,34.922 323.242 C 34.369 324.048,33.240 325.630,32.414 326.758 C 28.930 331.511,29.347 332.452,34.180 330.749 C 36.690 329.864,48.219 325.945,57.520 322.815 C 70.385 318.485,90.267 311.735,94.238 310.348 C 95.527 309.898,99.263 308.623,102.539 307.514 C 105.815 306.405,108.643 305.441,108.822 305.371 C 109.122 305.254,109.120 305.355,108.796 306.675 C 108.602 307.462,107.986 310.039,107.426 312.402 C 106.039 318.260,104.642 324.114,103.418 329.199 C 103.160 330.273,102.148 334.492,101.170 338.574 C 100.192 342.656,99.039 347.446,98.609 349.219 C 97.595 353.394,97.507 354.119,97.958 354.571 C 98.609 355.222,100.123 354.455,100.499 353.284 C 100.557 353.103,100.717 352.927,100.855 352.893 C 101.150 352.821,102.930 350.848,102.930 350.594 C 102.930 350.498,103.047 350.391,103.189 350.356 C 103.500 350.281,105.273 348.310,105.273 348.040 C 105.273 347.937,105.386 347.852,105.523 347.852 C 105.786 347.852,109.570 343.656,109.570 343.364 C 109.570 343.270,109.687 343.164,109.830 343.130 C 110.131 343.056,111.914 341.088,111.914 340.828 C 111.914 340.732,112.031 340.625,112.174 340.590 C 112.485 340.515,114.258 338.545,114.258 338.275 C 114.258 338.171,114.370 338.086,114.506 338.086 C 114.772 338.086,118.146 334.387,118.434 333.780 C 118.529 333.581,118.711 333.391,118.840 333.359 C 119.133 333.286,120.898 331.304,120.898 331.048 C 120.898 330.944,121.008 330.853,121.143 330.844 C 121.277 330.836,122.155 329.979,123.093 328.940 C 124.031 327.901,125.370 326.436,126.067 325.684 C 126.764 324.932,127.386 324.163,127.450 323.975 C 127.513 323.787,127.684 323.633,127.829 323.633 C 128.119 323.633,129.297 322.239,129.297 321.896 C 129.297 321.777,129.429 321.680,129.590 321.680 C 129.751 321.680,129.883 321.558,129.883 321.409 C 129.883 321.261,130.057 321.094,130.269 321.038 C 130.481 320.983,130.899 320.536,131.197 320.045 C 131.495 319.554,131.848 319.150,131.982 319.147 C 132.117 319.143,132.227 319.019,132.227 318.870 C 132.227 318.722,132.400 318.555,132.613 318.499 C 132.825 318.444,133.242 317.999,133.540 317.510 C 133.838 317.022,134.175 316.595,134.289 316.563 C 134.558 316.486,136.523 314.305,136.523 314.083 C 136.523 313.989,136.697 313.867,136.909 313.812 C 137.122 313.756,137.539 313.309,137.837 312.819 C 138.135 312.328,138.489 311.924,138.623 311.920 C 138.757 311.917,138.867 311.782,138.867 311.621 C 138.867 311.460,138.991 311.328,139.143 311.328 C 139.465 311.328,140.347 310.333,140.527 309.767 C 140.595 309.551,140.772 309.375,140.920 309.375 C 141.197 309.375,142.969 307.332,142.969 307.013 C 142.969 306.916,143.087 306.836,143.231 306.836 C 143.376 306.836,143.644 306.670,143.828 306.467 C 144.189 306.068,146.055 306.979,146.082 307.568 C 146.089 307.703,146.226 307.813,146.387 307.813 C 146.548 307.813,146.680 307.897,146.680 308.001 C 146.680 308.267,149.439 310.918,149.854 311.050 C 150.042 311.110,150.195 311.285,150.195 311.439 C 150.195 311.593,150.327 311.719,150.488 311.719 C 150.649 311.719,150.781 311.796,150.781 311.890 C 150.781 312.135,153.828 315.102,154.296 315.313 C 154.511 315.410,154.688 315.608,154.688 315.753 C 154.688 315.897,154.819 316.016,154.980 316.016 C 155.142 316.016,155.273 316.108,155.273 316.220 C 155.273 316.512,157.961 319.100,158.413 319.243 C 158.620 319.309,158.789 319.488,158.789 319.642 C 158.789 319.796,158.921 319.922,159.082 319.922 C 159.243 319.922,159.375 320.009,159.375 320.116 C 159.375 320.383,162.127 323.020,162.549 323.157 C 162.737 323.219,162.891 323.369,162.891 323.491 C 162.891 323.778,166.591 327.313,167.041 327.457 C 167.229 327.516,167.383 327.691,167.383 327.845 C 167.383 327.999,167.508 328.125,167.661 328.125 C 167.815 328.125,167.969 328.235,168.003 328.369 C 168.087 328.694,171.017 331.445,171.279 331.445 C 171.392 331.445,171.485 331.555,171.486 331.689 C 171.487 331.963,174.519 334.766,174.812 334.766 C 174.916 334.766,175.000 334.897,175.000 335.059 C 175.000 335.220,175.132 335.352,175.293 335.352 C 175.454 335.352,175.586 335.460,175.586 335.593 C 175.586 335.889,178.286 338.437,178.760 338.589 C 178.948 338.649,179.102 338.824,179.102 338.978 C 179.102 339.132,179.233 339.258,179.395 339.258 C 179.556 339.258,179.688 339.334,179.688 339.427 C 179.688 339.666,183.334 343.224,183.798 343.438 C 184.008 343.535,184.180 343.689,184.180 343.781 C 184.180 344.033,186.949 346.665,187.348 346.791 C 187.539 346.852,187.695 347.027,187.695 347.181 C 187.695 347.335,187.827 347.461,187.988 347.461 C 188.149 347.461,188.281 347.545,188.281 347.649 C 188.281 347.892,189.940 349.605,190.603 350.048 C 192.198 351.112,192.781 350.284,192.651 347.140 C 192.607 346.081,192.395 338.228,192.179 329.688 C 191.963 321.147,191.701 313.149,191.598 311.914 C 191.495 310.679,191.409 309.462,191.408 309.211 C 191.405 308.514,190.918 308.608,185.156 310.421 C 182.002 311.414,176.182 313.188,175.313 313.421 C 174.136 313.738,175.084 312.078,179.527 306.044 C 181.935 302.774,184.824 298.830,185.947 297.281 C 187.070 295.732,188.580 293.812,189.304 293.016 C 191.329 290.787,191.261 291.376,190.865 279.316 C 190.730 275.191,190.666 271.769,190.723 271.712 C 190.855 271.580,195.444 271.993,198.633 272.424 C 203.672 273.105,204.235 272.956,205.660 270.564 C 206.030 269.942,206.802 268.792,207.375 268.008 C 209.325 265.337,209.558 265.689,204.964 264.363 C 202.932 263.776,198.545 262.500,195.215 261.527 C 191.885 260.553,185.161 258.612,180.273 257.213 C 175.386 255.813,169.772 254.181,167.798 253.584 C 165.825 252.988,163.012 252.166,161.548 251.757 C 157.678 250.677,148.983 248.161,145.703 247.173 C 144.146 246.703,142.366 246.178,141.748 246.006 C 140.956 245.785,140.619 245.593,140.606 245.356 C 140.567 244.677,140.058 248.417,139.841 250.977 C 139.718 252.427,139.361 255.679,139.048 258.203 C 138.393 263.482,138.355 264.721,138.793 266.645 C 139.800 271.074,138.601 276.691,135.744 280.924 C 135.421 281.403,135.156 281.903,135.156 282.035 C 135.156 282.554,133.332 284.768,131.318 286.693 C 128.769 289.130,128.775 289.125,127.982 289.529 C 127.634 289.706,127.044 290.157,126.670 290.531 C 126.296 290.905,125.836 291.211,125.647 291.211 C 125.459 291.211,125.082 291.460,124.811 291.765 C 124.341 292.291,121.545 293.555,120.849 293.555 C 120.679 293.555,120.511 293.639,120.475 293.743 C 120.252 294.388,114.048 294.951,111.797 294.530 C 108.490 293.913,105.533 291.901,104.289 289.424 C 104.054 288.956,103.708 288.398,103.520 288.184 C 101.727 286.140,101.690 280.107,103.441 275.601 C 104.508 272.854,107.819 267.188,108.357 267.188 C 108.423 267.188,108.371 267.293,108.242 267.422 C 107.966 267.698,107.936 267.969,108.181 267.969 C 108.364 267.969,108.993 267.091,109.074 266.723 C 109.202 266.142,113.211 262.454,114.258 261.954 C 115.125 261.540,116.052 260.971,116.479 260.590 C 117.653 259.541,121.535 258.203,123.405 258.203 C 124.390 258.203,125.195 258.137,125.195 258.056 C 125.195 257.976,125.596 257.697,126.086 257.437 C 128.137 256.349,130.328 252.722,131.050 249.219 C 131.261 248.198,131.745 245.913,132.126 244.141 C 132.507 242.368,133.085 239.248,133.410 237.207 C 135.850 221.886,136.585 216.591,137.790 205.630 C 138.282 201.154,138.820 196.979,138.986 196.353 C 139.460 194.553,139.793 192.446,139.936 190.332 C 140.009 189.258,140.191 187.632,140.341 186.719 C 140.490 185.806,140.794 183.257,141.016 181.055 C 141.526 176.006,142.003 173.166,142.411 172.758 C 142.597 172.572,144.484 174.380,145.442 175.660 C 145.933 176.318,146.577 177.075,146.871 177.344 C 147.166 177.612,148.501 179.282,149.839 181.055 C 155.979 189.191,157.075 190.481,162.206 195.605 C 170.850 204.239,174.374 211.079,172.672 215.921 L 172.297 216.988 173.014 216.405 C 173.923 215.664,178.201 212.325,184.570 207.383 C 187.310 205.257,190.474 202.784,191.602 201.886 C 192.729 200.987,194.155 199.935,194.770 199.546 C 195.469 199.104,195.922 198.673,195.978 198.394 C 196.217 197.218,196.336 195.593,196.975 184.863 C 198.010 167.467,198.402 161.182,198.827 155.176 C 199.040 152.168,199.310 147.949,199.426 145.801 C 199.543 143.652,199.698 141.344,199.770 140.670 L 199.902 139.446 206.038 142.483 C 211.793 145.332,213.946 146.276,214.174 146.047 C 214.449 145.772,216.068 139.496,218.267 130.176 C 218.673 128.457,220.146 122.437,221.541 116.797 C 223.260 109.848,224.109 106.055,224.173 105.029 L 224.269 103.516 223.414 103.522 C 222.614 103.528,222.390 103.669,219.971 105.693 M146.396 195.746 C 146.319 196.521,146.178 197.304,146.081 197.485 C 145.730 198.141,145.301 201.427,144.530 209.375 C 144.098 213.833,143.617 218.271,143.462 219.238 C 143.306 220.205,143.041 222.437,142.873 224.198 C 142.705 225.959,142.519 227.477,142.460 227.571 C 142.402 227.666,142.101 230.181,141.791 233.159 C 141.482 236.137,141.169 239.111,141.097 239.768 C 140.925 241.332,141.076 241.371,142.581 240.152 C 147.579 236.106,167.970 220.377,167.975 220.566 C 167.978 220.695,168.069 220.650,168.176 220.465 C 168.404 220.075,168.340 215.630,168.107 215.627 C 168.021 215.626,167.971 215.515,167.994 215.381 C 168.123 214.644,167.106 212.243,166.422 211.672 C 166.199 211.485,166.016 211.212,166.016 211.064 C 166.016 210.917,165.804 210.638,165.546 210.444 C 165.288 210.250,165.113 209.995,165.159 209.876 C 165.306 209.492,160.693 205.078,160.144 205.078 C 159.773 205.078,158.598 204.194,158.588 203.906 C 158.582 203.745,157.570 202.813,156.339 201.835 C 155.107 200.856,152.804 198.871,151.220 197.423 C 147.046 193.606,146.621 193.458,146.396 195.746 M162.585 230.518 L 162.012 231.152 162.646 230.579 C 163.238 230.044,163.371 229.883,163.220 229.883 C 163.187 229.883,162.901 230.168,162.585 230.518 " stroke="none" fill="#6c8cac" fill-rule="evenodd"></path><path id="path1" d="M273.294 155.965 C 268.486 157.260,263.989 162.117,262.000 168.164 C 260.757 171.945,261.449 178.911,263.276 180.994 C 263.999 181.819,264.360 182.772,264.928 185.352 C 265.081 186.050,265.476 187.576,265.804 188.744 C 266.132 189.911,266.458 191.429,266.528 192.118 C 266.599 192.806,266.700 193.326,266.753 193.273 C 266.987 193.039,267.590 194.195,267.681 195.052 C 267.758 195.779,267.734 195.906,267.579 195.605 C 267.352 195.167,267.356 195.200,267.785 197.269 C 268.087 198.727,269.636 204.167,270.092 205.371 C 270.295 205.908,271.308 209.775,272.343 213.965 C 273.378 218.154,274.421 222.329,274.661 223.242 C 274.901 224.155,275.078 225.034,275.054 225.195 C 274.968 225.774,275.628 228.627,275.994 229.260 C 276.420 229.997,277.478 234.237,277.633 235.831 C 277.778 237.328,278.302 239.496,278.604 239.844 C 278.935 240.228,279.233 241.254,279.385 242.537 C 279.453 243.105,279.584 243.765,279.677 244.002 C 280.119 245.130,280.640 247.079,280.761 248.063 L 280.896 249.154 279.267 249.503 C 278.370 249.695,277.399 249.974,277.109 250.122 C 276.819 250.270,276.267 250.391,275.882 250.391 C 275.498 250.391,274.636 250.575,273.968 250.801 C 273.191 251.063,272.118 251.234,270.987 251.274 C 269.150 251.339,267.266 251.833,266.079 252.563 C 265.649 252.827,264.869 252.995,263.538 253.110 C 262.152 253.231,261.376 253.403,260.747 253.731 C 260.061 254.089,259.509 254.196,258.141 254.236 C 256.398 254.287,254.844 254.651,252.420 255.574 C 251.763 255.824,250.665 256.083,249.978 256.149 C 247.681 256.369,246.286 256.676,246.040 257.017 C 245.462 257.816,240.221 258.334,238.785 257.734 C 236.933 256.960,235.897 255.349,234.594 251.221 C 234.145 249.797,233.692 248.633,233.588 248.633 C 233.484 248.633,233.398 248.474,233.398 248.280 C 233.398 247.728,231.094 240.965,230.856 240.818 C 230.739 240.746,230.514 240.124,230.354 239.435 C 229.869 237.337,228.709 233.789,228.509 233.789 C 228.405 233.789,228.320 233.629,228.320 233.433 C 228.320 233.238,228.194 232.688,228.039 232.213 C 227.885 231.737,227.130 229.370,226.362 226.953 C 225.593 224.536,224.859 222.471,224.731 222.363 C 224.602 222.256,224.342 221.597,224.154 220.898 C 223.406 218.126,222.243 214.648,222.064 214.648 C 221.960 214.648,221.875 214.487,221.875 214.289 C 221.875 213.709,218.962 204.921,218.746 204.849 C 218.637 204.813,218.379 204.080,218.171 203.222 C 217.963 202.363,217.569 201.008,217.295 200.210 C 217.021 199.412,216.797 198.739,216.797 198.715 C 216.797 198.690,217.258 198.609,217.822 198.536 C 229.984 196.949,236.170 177.023,226.473 170.671 C 214.488 162.820,199.341 184.861,209.279 195.690 C 210.725 197.267,210.880 197.587,211.791 200.883 C 212.160 202.218,212.602 203.450,212.774 203.622 C 212.945 203.794,213.088 204.082,213.089 204.262 C 213.095 204.806,215.169 211.752,215.365 211.887 C 215.466 211.955,216.114 213.895,216.807 216.197 C 217.500 218.498,218.176 220.491,218.311 220.626 C 218.445 220.760,218.554 220.987,218.552 221.129 C 218.549 221.420,219.686 225.084,220.510 227.441 C 220.811 228.301,221.850 231.421,222.820 234.375 C 223.790 237.329,224.890 240.669,225.265 241.797 C 225.640 242.925,226.304 245.028,226.739 246.470 C 227.175 247.913,227.619 249.147,227.726 249.214 C 227.833 249.280,228.050 250.008,228.207 250.832 C 228.365 251.655,228.594 252.516,228.716 252.745 C 228.979 253.235,230.010 256.251,231.718 261.523 C 232.396 263.618,233.225 266.027,233.561 266.877 C 233.896 267.727,234.477 269.493,234.852 270.801 C 235.227 272.110,235.710 273.590,235.924 274.090 L 236.314 275.000 237.740 275.000 C 238.800 275.000,239.356 274.898,239.906 274.603 C 240.313 274.385,241.279 274.125,242.052 274.026 C 242.825 273.926,243.896 273.710,244.434 273.546 C 244.971 273.381,245.696 273.245,246.045 273.244 C 246.394 273.243,246.680 273.165,246.680 273.071 C 246.680 272.817,248.909 272.305,250.586 272.173 C 252.486 272.025,252.945 271.927,253.898 271.466 C 254.361 271.242,255.475 271.003,256.592 270.887 C 259.040 270.634,261.417 270.100,261.886 269.698 C 262.843 268.879,265.866 268.192,266.192 268.719 C 266.284 268.868,266.637 268.850,267.390 268.658 C 267.977 268.508,269.233 268.235,270.182 268.050 C 271.131 267.865,272.036 267.585,272.193 267.427 C 272.681 266.939,274.761 266.406,276.177 266.406 C 277.648 266.406,279.992 265.975,280.818 265.551 C 281.109 265.402,282.314 265.081,283.496 264.838 C 284.678 264.594,285.864 264.258,286.133 264.090 C 286.943 263.584,291.446 263.067,291.684 263.453 C 291.977 263.926,292.383 263.675,292.383 263.020 C 292.383 261.942,291.058 257.005,290.649 256.559 C 290.444 256.335,290.216 255.866,290.142 255.515 C 290.068 255.165,289.630 253.715,289.169 252.293 C 288.709 250.871,288.268 249.268,288.191 248.730 C 287.997 247.389,286.867 243.177,285.911 240.234 C 285.474 238.892,284.950 236.928,284.744 235.871 C 284.539 234.814,283.851 232.090,283.214 229.817 C 282.578 227.543,281.529 223.662,280.883 221.191 C 280.237 218.721,279.530 216.188,279.313 215.563 C 279.096 214.937,278.349 212.213,277.653 209.508 C 275.664 201.776,273.645 194.465,273.466 194.346 C 273.376 194.287,273.246 193.711,273.179 193.066 C 273.079 192.120,271.923 187.876,271.391 186.504 C 271.288 186.240,271.493 186.173,272.695 186.078 C 281.534 185.380,288.586 174.532,286.639 164.629 C 285.376 158.208,279.392 154.323,273.294 155.965 M142.304 172.887 C 141.693 174.919,141.480 176.317,140.912 182.031 C 140.746 183.696,140.489 185.806,140.340 186.719 C 140.191 187.632,140.009 189.258,139.936 190.332 C 139.793 192.446,139.460 194.553,138.986 196.353 C 138.820 196.979,138.282 201.154,137.790 205.630 C 136.585 216.591,135.850 221.886,133.410 237.207 C 133.085 239.248,132.507 242.368,132.126 244.141 C 131.745 245.913,131.261 248.198,131.050 249.219 C 130.328 252.722,128.137 256.349,126.086 257.437 C 125.596 257.697,125.195 257.976,125.195 258.056 C 125.195 258.137,124.390 258.203,123.405 258.203 C 121.535 258.203,117.653 259.541,116.479 260.590 C 116.052 260.971,115.125 261.540,114.258 261.954 C 113.211 262.454,109.202 266.142,109.074 266.723 C 108.993 267.091,108.364 267.969,108.181 267.969 C 107.936 267.969,107.966 267.698,108.242 267.422 C 108.371 267.293,108.423 267.188,108.357 267.188 C 107.819 267.188,104.508 272.854,103.441 275.601 C 101.690 280.107,101.727 286.140,103.520 288.184 C 103.708 288.398,104.054 288.956,104.289 289.424 C 105.533 291.901,108.490 293.913,111.797 294.530 C 114.048 294.951,120.252 294.388,120.475 293.743 C 120.511 293.639,120.679 293.555,120.849 293.555 C 121.545 293.555,124.341 292.291,124.811 291.765 C 125.082 291.460,125.459 291.211,125.647 291.211 C 125.836 291.211,126.296 290.905,126.670 290.531 C 127.044 290.157,127.634 289.706,127.982 289.529 C 128.775 289.125,128.769 289.130,131.318 286.693 C 133.332 284.768,135.156 282.554,135.156 282.035 C 135.156 281.903,135.421 281.403,135.744 280.924 C 138.601 276.691,139.800 271.074,138.793 266.645 C 138.354 264.717,138.391 263.519,139.055 258.122 C 139.374 255.535,139.727 252.319,139.840 250.977 C 139.953 249.634,140.222 247.305,140.439 245.801 C 140.655 244.297,140.915 242.100,141.017 240.918 C 141.363 236.905,142.353 227.745,142.460 227.571 C 142.519 227.477,142.705 225.959,142.873 224.198 C 143.041 222.437,143.306 220.205,143.462 219.238 C 143.617 218.271,144.098 213.833,144.530 209.375 C 145.301 201.427,145.730 198.141,146.081 197.485 C 146.178 197.304,146.319 196.521,146.396 195.746 C 146.621 193.458,147.046 193.606,151.220 197.423 C 152.804 198.871,155.107 200.856,156.339 201.835 C 157.570 202.813,158.582 203.745,158.588 203.906 C 158.598 204.194,159.773 205.078,160.144 205.078 C 160.693 205.078,165.306 209.492,165.159 209.876 C 165.113 209.995,165.288 210.250,165.546 210.444 C 165.804 210.638,166.016 210.917,166.016 211.064 C 166.016 211.212,166.199 211.485,166.422 211.672 C 167.106 212.243,168.123 214.644,167.994 215.381 C 167.971 215.515,168.021 215.625,168.107 215.626 C 168.192 215.626,168.262 216.747,168.262 218.116 L 168.262 220.605 167.317 221.615 C 166.797 222.171,166.380 222.676,166.390 222.739 C 166.420 222.933,162.879 226.146,161.133 227.509 C 160.220 228.222,159.446 228.863,159.414 228.934 C 159.382 229.004,159.055 229.448,158.687 229.920 C 157.855 230.988,157.422 232.187,157.422 233.423 C 157.422 234.675,157.485 234.658,159.928 232.735 C 163.023 230.299,164.683 228.528,168.418 223.673 C 169.144 222.728,171.531 218.543,172.299 216.866 C 174.680 211.667,171.427 204.815,162.206 195.605 C 157.075 190.481,155.979 189.191,149.839 181.055 C 148.501 179.282,147.167 177.612,146.875 177.344 C 146.582 177.075,146.052 176.460,145.696 175.977 C 144.294 174.069,142.453 172.391,142.304 172.887 " stroke="none" fill="#dbebeb" fill-rule="evenodd"></path><path id="path2" d="M272.008 109.218 C 271.566 109.800,266.157 118.337,261.080 126.465 C 258.749 130.196,258.377 130.785,255.446 135.396 C 250.390 143.348,243.038 155.077,242.040 156.780 C 241.456 157.778,240.900 158.594,240.805 158.594 C 240.605 158.594,238.685 157.685,230.078 153.515 C 226.694 151.876,222.959 150.074,221.777 149.510 C 220.596 148.947,218.499 147.942,217.118 147.278 L 214.608 146.071 214.715 145.155 L 214.822 144.238 214.525 145.178 C 214.122 146.454,214.262 146.497,206.445 142.664 L 199.902 139.455 199.770 140.675 C 199.698 141.346,199.543 143.652,199.426 145.801 C 199.310 147.949,199.040 152.168,198.827 155.176 C 198.402 161.182,198.010 167.467,196.975 184.863 C 196.336 195.593,196.217 197.218,195.978 198.394 C 195.922 198.673,195.469 199.104,194.770 199.546 C 194.155 199.935,192.729 200.987,191.602 201.886 C 190.474 202.784,187.310 205.257,184.570 207.383 C 178.262 212.277,173.928 215.660,173.029 216.391 C 172.572 216.764,171.812 217.899,170.840 219.662 C 168.870 223.239,167.666 224.925,164.258 228.881 C 163.019 230.319,158.153 234.375,157.666 234.375 C 156.835 234.375,157.626 231.114,158.797 229.711 C 159.123 229.322,159.460 228.916,159.548 228.809 C 159.636 228.701,160.440 228.042,161.335 227.344 C 163.600 225.577,168.147 220.946,168.013 220.543 C 167.963 220.392,149.915 234.299,142.603 240.122 C 141.919 240.667,141.295 241.096,141.217 241.074 C 141.080 241.037,140.625 244.203,140.625 245.198 C 140.625 245.633,140.759 245.730,141.748 246.006 C 142.366 246.178,144.146 246.703,145.703 247.173 C 148.983 248.161,157.678 250.677,161.548 251.757 C 163.012 252.166,165.825 252.988,167.798 253.584 C 169.772 254.181,175.386 255.813,180.273 257.213 C 185.161 258.612,191.885 260.553,195.215 261.527 C 198.545 262.500,202.932 263.776,204.964 264.363 C 209.558 265.689,209.327 265.338,207.371 268.008 C 206.797 268.792,206.084 269.855,205.787 270.369 C 205.076 271.603,204.140 272.654,203.740 272.667 C 203.558 272.673,202.782 273.589,201.961 274.766 C 201.159 275.915,199.789 277.822,198.915 279.004 C 197.008 281.584,193.856 285.908,192.511 287.791 C 191.975 288.542,191.419 289.273,191.276 289.416 C 191.133 289.559,191.015 289.780,191.015 289.907 C 191.011 290.752,190.473 291.729,189.301 293.018 C 188.579 293.814,187.070 295.732,185.947 297.281 C 184.824 298.830,181.935 302.774,179.527 306.044 C 175.084 312.078,174.136 313.738,175.313 313.421 C 176.182 313.188,182.002 311.414,185.156 310.421 C 189.392 309.088,189.560 309.040,190.557 308.886 L 191.368 308.761 191.496 310.679 C 191.677 313.392,191.798 313.584,191.708 311.017 L 191.632 308.850 200.845 306.058 C 205.913 304.523,211.025 302.962,212.207 302.590 C 215.458 301.567,220.889 300.000,221.186 300.000 C 221.331 300.000,221.909 300.857,222.471 301.904 C 224.780 306.207,229.975 315.999,232.081 320.020 C 233.319 322.383,235.515 326.558,236.961 329.297 C 238.408 332.036,240.032 335.112,240.570 336.133 C 241.109 337.153,242.939 340.625,244.637 343.848 C 246.335 347.070,249.117 352.344,250.820 355.566 C 252.522 358.789,254.015 361.624,254.139 361.865 C 254.319 362.218,254.529 362.305,255.200 362.305 C 256.297 362.305,255.521 365.760,262.892 328.027 C 267.233 305.800,268.946 297.193,269.155 296.548 L 269.356 295.928 269.931 296.255 C 270.247 296.435,270.506 296.692,270.507 296.826 C 270.507 296.960,270.633 297.070,270.786 297.070 C 270.940 297.070,271.094 297.180,271.128 297.314 C 271.216 297.653,276.085 302.344,276.349 302.344 C 276.466 302.344,276.563 302.476,276.563 302.637 C 276.563 302.798,276.657 302.930,276.772 302.930 C 277.042 302.930,277.539 303.427,277.539 303.697 C 277.539 303.812,277.671 303.906,277.832 303.906 C 277.993 303.906,278.125 303.983,278.125 304.076 C 278.125 304.314,281.771 307.872,282.235 308.086 C 282.445 308.183,282.617 308.383,282.617 308.530 C 282.617 308.677,282.837 308.898,283.105 309.020 C 283.374 309.142,283.594 309.360,283.594 309.504 C 283.594 309.648,283.726 309.766,283.887 309.766 C 284.048 309.766,284.180 309.840,284.180 309.931 C 284.180 310.169,288.808 314.713,289.265 314.922 C 289.476 315.019,289.648 315.172,289.648 315.261 C 289.648 315.510,294.388 320.103,294.775 320.228 C 294.963 320.289,295.117 320.465,295.117 320.619 C 295.117 320.773,295.211 320.898,295.326 320.898 C 295.597 320.898,296.094 321.395,296.094 321.666 C 296.094 321.781,296.219 321.875,296.372 321.875 C 296.526 321.875,296.679 321.985,296.714 322.119 C 296.802 322.458,301.671 327.148,301.935 327.148 C 302.052 327.148,302.148 327.280,302.148 327.441 C 302.148 327.603,302.280 327.734,302.441 327.734 C 302.603 327.734,302.734 327.810,302.734 327.902 C 302.734 328.140,306.774 332.093,307.234 332.305 C 307.445 332.402,307.617 332.600,307.617 332.745 C 307.617 332.889,307.711 333.008,307.826 333.008 C 308.097 333.008,308.594 333.505,308.594 333.775 C 308.594 333.890,308.726 333.984,308.887 333.984 C 309.048 333.984,309.180 334.072,309.180 334.178 C 309.180 334.431,313.773 338.912,314.268 339.141 C 314.477 339.238,314.648 339.436,314.648 339.581 C 314.648 339.725,314.780 339.844,314.941 339.844 C 315.103 339.844,315.234 339.962,315.234 340.106 C 315.234 340.601,315.931 341.016,316.763 341.016 L 317.578 341.016 317.578 339.965 C 317.578 339.321,317.390 338.413,317.091 337.620 C 316.513 336.084,310.219 317.535,304.393 300.195 C 302.101 293.374,298.461 282.578,296.304 276.205 C 294.147 269.831,292.383 264.425,292.383 264.192 C 292.383 263.535,291.426 263.204,289.970 263.357 C 287.563 263.610,286.611 263.792,286.133 264.090 C 285.864 264.258,284.678 264.594,283.496 264.838 C 282.314 265.081,281.109 265.402,280.818 265.551 C 279.992 265.975,277.648 266.406,276.177 266.406 C 274.761 266.406,272.681 266.939,272.193 267.427 C 272.036 267.585,271.131 267.865,270.182 268.050 C 269.233 268.235,267.977 268.508,267.390 268.658 C 266.637 268.850,266.284 268.868,266.192 268.719 C 265.866 268.192,262.843 268.879,261.886 269.698 C 261.417 270.100,259.040 270.634,256.592 270.887 C 255.475 271.003,254.361 271.242,253.898 271.466 C 252.945 271.927,252.486 272.025,250.586 272.173 C 248.909 272.305,246.680 272.817,246.680 273.071 C 246.680 273.165,246.394 273.243,246.045 273.244 C 245.696 273.245,244.971 273.381,244.434 273.546 C 243.896 273.710,242.825 273.926,242.052 274.026 C 241.279 274.125,240.313 274.385,239.906 274.603 C 239.356 274.898,238.800 275.000,237.740 275.000 L 236.314 275.000 235.924 274.090 C 235.710 273.590,235.227 272.110,234.852 270.801 C 234.477 269.493,233.896 267.727,233.561 266.877 C 233.225 266.027,232.396 263.618,231.718 261.523 C 230.010 256.251,228.979 253.235,228.716 252.745 C 228.594 252.516,228.365 251.655,228.207 250.832 C 228.050 250.008,227.833 249.280,227.726 249.214 C 227.619 249.147,227.175 247.913,226.739 246.470 C 226.304 245.028,225.640 242.925,225.265 241.797 C 224.890 240.669,223.790 237.329,222.820 234.375 C 221.850 231.421,220.811 228.301,220.510 227.441 C 219.686 225.084,218.549 221.420,218.552 221.129 C 218.554 220.987,218.445 220.760,218.311 220.626 C 218.176 220.491,217.500 218.498,216.807 216.197 C 216.114 213.895,215.466 211.955,215.365 211.887 C 215.169 211.752,213.095 204.806,213.089 204.262 C 213.088 204.082,212.945 203.794,212.774 203.622 C 212.602 203.450,212.160 202.218,211.791 200.883 C 210.880 197.587,210.725 197.267,209.279 195.690 C 199.341 184.861,214.488 162.820,226.473 170.671 C 236.170 177.023,229.983 196.949,217.822 198.536 C 217.258 198.609,216.797 198.690,216.797 198.715 C 216.797 198.739,217.021 199.412,217.295 200.210 C 217.569 201.008,217.963 202.363,218.171 203.222 C 218.379 204.080,218.637 204.813,218.746 204.849 C 218.962 204.921,221.875 213.709,221.875 214.289 C 221.875 214.487,221.960 214.648,222.064 214.648 C 222.243 214.648,223.406 218.126,224.154 220.898 C 224.342 221.597,224.602 222.256,224.731 222.363 C 224.859 222.471,225.593 224.536,226.362 226.953 C 227.130 229.370,227.885 231.737,228.039 232.213 C 228.194 232.688,228.320 233.238,228.320 233.433 C 228.320 233.629,228.405 233.789,228.509 233.789 C 228.709 233.789,229.869 237.337,230.354 239.435 C 230.514 240.124,230.739 240.746,230.856 240.818 C 231.094 240.965,233.398 247.728,233.398 248.280 C 233.398 248.474,233.484 248.633,233.588 248.633 C 233.692 248.633,234.145 249.797,234.594 251.221 C 235.897 255.349,236.933 256.960,238.785 257.734 C 240.221 258.334,245.462 257.816,246.040 257.017 C 246.286 256.676,247.681 256.369,249.978 256.149 C 250.665 256.083,251.763 255.824,252.420 255.574 C 254.844 254.651,256.398 254.287,258.141 254.236 C 259.509 254.196,260.061 254.089,260.747 253.731 C 261.376 253.403,262.152 253.231,263.538 253.110 C 264.869 252.995,265.649 252.827,266.079 252.563 C 267.266 251.833,269.150 251.339,270.987 251.274 C 272.118 251.234,273.191 251.063,273.968 250.801 C 274.636 250.575,275.498 250.391,275.882 250.391 C 276.267 250.391,276.819 250.270,277.109 250.122 C 277.399 249.974,278.370 249.695,279.267 249.503 L 280.896 249.154 280.761 248.063 C 280.640 247.079,280.119 245.130,279.677 244.002 C 279.584 243.765,279.453 243.105,279.385 242.537 C 279.233 241.254,278.935 240.228,278.604 239.844 C 278.302 239.496,277.778 237.328,277.633 235.831 C 277.478 234.237,276.420 229.997,275.994 229.260 C 275.628 228.627,274.968 225.774,275.054 225.195 C 275.078 225.034,274.901 224.155,274.661 223.242 C 274.421 222.329,273.378 218.154,272.343 213.965 C 271.308 209.775,270.295 205.908,270.092 205.371 C 269.143 202.867,266.974 194.435,267.579 195.605 C 267.734 195.906,267.758 195.779,267.681 195.052 C 267.590 194.195,266.987 193.039,266.753 193.273 C 266.700 193.326,266.599 192.806,266.528 192.118 C 266.458 191.429,266.132 189.911,265.804 188.744 C 265.476 187.576,265.081 186.050,264.928 185.352 C 264.360 182.772,263.999 181.819,263.276 180.994 C 261.451 178.913,260.758 171.953,261.997 168.164 C 265.711 156.813,276.762 151.941,283.513 158.677 C 291.695 166.841,284.467 185.148,272.695 186.078 C 271.493 186.173,271.288 186.240,271.391 186.504 C 271.923 187.876,273.079 192.120,273.179 193.066 C 273.246 193.711,273.376 194.287,273.466 194.346 C 273.645 194.465,275.664 201.776,277.653 209.508 C 278.349 212.213,279.096 214.937,279.313 215.563 C 279.530 216.188,280.237 218.721,280.883 221.191 C 281.529 223.662,282.578 227.543,283.214 229.817 C 283.851 232.090,284.539 234.814,284.744 235.871 C 284.950 236.928,285.474 238.892,285.911 240.234 C 286.867 243.177,287.997 247.389,288.191 248.730 C 288.268 249.268,288.709 250.871,289.169 252.293 C 289.630 253.715,290.068 255.165,290.142 255.515 C 290.292 256.218,290.825 256.941,291.001 256.678 C 291.063 256.586,291.904 256.357,292.871 256.170 C 293.838 255.984,296.475 255.400,298.730 254.874 C 300.986 254.348,305.293 253.348,308.301 252.653 C 311.309 251.957,315.615 250.954,317.871 250.423 C 320.127 249.892,323.730 249.047,325.879 248.545 C 330.814 247.392,332.802 246.926,334.277 246.578 C 335.946 246.184,348.500 243.202,349.902 242.867 C 350.547 242.713,351.865 242.414,352.832 242.203 C 358.790 240.901,379.922 235.893,381.568 235.392 L 382.715 235.043 382.950 233.781 C 383.457 231.057,383.312 230.555,381.738 229.599 C 381.416 229.403,380.317 228.653,379.297 227.931 C 378.276 227.209,373.750 224.043,369.238 220.896 C 364.727 217.749,359.893 214.367,358.496 213.381 C 357.100 212.395,353.145 209.625,349.707 207.225 C 346.270 204.826,342.314 202.056,340.918 201.071 C 337.755 198.839,327.694 191.815,323.568 188.958 C 319.395 186.068,317.935 184.965,318.006 184.754 C 318.068 184.573,322.305 181.637,326.514 178.860 C 327.830 177.992,328.906 177.164,328.906 177.020 C 328.906 176.876,329.047 176.758,329.218 176.758 C 329.390 176.758,330.598 176.025,331.904 175.130 C 333.209 174.235,336.167 172.229,338.477 170.671 C 344.841 166.378,350.951 162.241,354.102 160.090 C 355.659 159.027,358.604 157.055,360.645 155.707 C 365.126 152.749,365.234 152.657,365.234 151.833 C 365.234 150.770,364.930 150.757,349.805 151.174 C 346.099 151.276,339.727 151.451,335.645 151.561 C 331.563 151.672,323.521 151.892,317.773 152.050 C 312.026 152.208,303.765 152.425,299.414 152.532 C 295.063 152.639,289.965 152.766,288.084 152.814 L 284.663 152.902 283.056 146.226 C 282.173 142.555,280.438 135.332,279.201 130.176 C 277.964 125.020,276.510 118.955,275.969 116.699 C 275.428 114.443,274.740 111.719,274.440 110.645 L 273.895 108.691 273.196 108.632 C 272.600 108.581,272.425 108.668,272.008 109.218 " stroke="none" fill="#cb4c4c" fill-rule="evenodd"></path></g></svg>